HIERARCHY
ROOT mixamorig:Hips
{
	OFFSET 0.000000 3.528733 0.000000
	CHANNELS 6 Xposition Yposition Zposition Xrotation Yrotation Zrotation
	JOINT mixamorig:Spine
	{
		OFFSET 0.000000 0.284700 -0.015200
		CHANNELS 3 Xrotation Yrotation Zrotation
		JOINT mixamorig:Spine1
		{
			OFFSET 0.000000 0.332125 -0.017771
			CHANNELS 3 Xrotation Yrotation Zrotation
			JOINT mixamorig:Spine2
			{
				OFFSET 0.000000 0.379557 -0.020309
				CHANNELS 3 Xrotation Yrotation Zrotation
				JOINT mixamorig:Neck
				{
					OFFSET 0.000000 0.426989 -0.022847
					CHANNELS 3 Xrotation Yrotation Zrotation
					JOINT mixamorig:Head
					{
						OFFSET 0.000000 0.288600 0.098000
						CHANNELS 3 Xrotation Yrotation Zrotation
						JOINT mixamorig:HeadTop_End
						{
							OFFSET 0.000000 0.712700 0.242000
							CHANNELS 3 Xrotation Yrotation Zrotation
							End Site
							{
								OFFSET 0.000000 0.752666 0.000000
							}
						}
					}
				}
				JOINT mixamorig:LeftShoulder
				{
					OFFSET 0.202600 0.346984 -0.022672
					CHANNELS 3 Xrotation Yrotation Zrotation
					JOINT mixamorig:LeftArm
					{
						OFFSET 0.427337 -0.109325 0.000307
						CHANNELS 3 Xrotation Yrotation Zrotation
						JOINT mixamorig:LeftForeArm
						{
							OFFSET 0.849600 0.000000 0.000000
							CHANNELS 3 Xrotation Yrotation Zrotation
							JOINT mixamorig:LeftHand
							{
								OFFSET 0.753900 0.000000 0.000000
								CHANNELS 3 Xrotation Yrotation Zrotation
								JOINT mixamorig:LeftHandThumb1
								{
									OFFSET 0.136012 -0.086473 0.045448
									CHANNELS 3 Xrotation Yrotation Zrotation
									JOINT mixamorig:LeftHandThumb2
									{
										OFFSET 0.103772 -0.059913 0.059913
										CHANNELS 3 Xrotation Yrotation Zrotation
										JOINT mixamorig:LeftHandThumb3
										{
											OFFSET 0.095779 -0.055298 0.055298
											CHANNELS 3 Xrotation Yrotation Zrotation
											JOINT mixamorig:LeftHandThumb4
											{
												OFFSET 0.073275 -0.042305 0.042305
												CHANNELS 3 Xrotation Yrotation Zrotation
												End Site
												{
													OFFSET 0.065698 -0.038445 0.056164
												}
											}
										}
									}
								}
								JOINT mixamorig:LeftHandIndex1
								{
									OFFSET 0.449965 -0.020370 0.085418
									CHANNELS 3 Xrotation Yrotation Zrotation
									JOINT mixamorig:LeftHandIndex2
									{
										OFFSET 0.102424 0.000000 -0.000000
										CHANNELS 3 Xrotation Yrotation Zrotation
										JOINT mixamorig:LeftHandIndex3
										{
											OFFSET 0.096306 0.000000 -0.000000
											CHANNELS 3 Xrotation Yrotation Zrotation
											JOINT mixamorig:LeftHandIndex4
											{
												OFFSET 0.078408 0.000000 -0.000000
												CHANNELS 3 Xrotation Yrotation Zrotation
												End Site
												{
													OFFSET 0.078400 -0.000010 -0.001100
												}
											}
										}
									}
								}
								JOINT mixamorig:LeftHandMiddle1
								{
									OFFSET 0.430485 0.000000 0.000000
									CHANNELS 3 Xrotation Yrotation Zrotation
									JOINT mixamorig:LeftHandMiddle2
									{
										OFFSET 0.112203 0.000000 0.000000
										CHANNELS 3 Xrotation Yrotation Zrotation
										JOINT mixamorig:LeftHandMiddle3
										{
											OFFSET 0.108209 0.000000 0.000000
											CHANNELS 3 Xrotation Yrotation Zrotation
											JOINT mixamorig:LeftHandMiddle4
											{
												OFFSET 0.087466 0.000000 0.000000
												CHANNELS 3 Xrotation Yrotation Zrotation
												End Site
												{
													OFFSET 0.087400 -0.000057 -0.003400
												}
											}
										}
									}
								}
								JOINT mixamorig:LeftHandRing1
								{
									OFFSET 0.364574 -0.002440 -0.092011
									CHANNELS 3 Xrotation Yrotation Zrotation
									JOINT mixamorig:LeftHandRing2
									{
										OFFSET 0.114832 0.000000 0.000000
										CHANNELS 3 Xrotation Yrotation Zrotation
										JOINT mixamorig:LeftHandRing3
										{
											OFFSET 0.104409 0.000000 0.000000
											CHANNELS 3 Xrotation Yrotation Zrotation
											JOINT mixamorig:LeftHandRing4
											{
												OFFSET 0.080424 0.000000 0.000000
												CHANNELS 3 Xrotation Yrotation Zrotation
												End Site
												{
													OFFSET 0.080200 -0.000053 -0.006000
												}
											}
										}
									}
								}
								JOINT mixamorig:LeftHandPinky1
								{
									OFFSET 0.312269 -0.016255 -0.171399
									CHANNELS 3 Xrotation Yrotation Zrotation
									JOINT mixamorig:LeftHandPinky2
									{
										OFFSET 0.087028 0.000000 0.000000
										CHANNELS 3 Xrotation Yrotation Zrotation
										JOINT mixamorig:LeftHandPinky3
										{
											OFFSET 0.073733 0.000000 0.000000
											CHANNELS 3 Xrotation Yrotation Zrotation
											JOINT mixamorig:LeftHandPinky4
											{
												OFFSET 0.056250 0.000000 0.000000
												CHANNELS 3 Xrotation Yrotation Zrotation
												End Site
												{
													OFFSET 0.056100 -0.000056 -0.004100
												}
											}
										}
									}
								}
							}
						}
					}
				}
				JOINT mixamorig:RightShoulder
				{
					OFFSET -0.202600 0.346968 -0.022971
					CHANNELS 3 Xrotation Yrotation Zrotation
					JOINT mixamorig:RightArm
					{
						OFFSET -0.427342 -0.109309 -0.000307
						CHANNELS 3 Xrotation Yrotation Zrotation
						JOINT mixamorig:RightForeArm
						{
							OFFSET -0.849600 0.000000 -0.000000
							CHANNELS 3 Xrotation Yrotation Zrotation
							JOINT mixamorig:RightHand
							{
								OFFSET -0.753900 0.000000 -0.000000
								CHANNELS 3 Xrotation Yrotation Zrotation
								JOINT mixamorig:RightHandThumb1
								{
									OFFSET -0.139217 -0.077736 0.046135
									CHANNELS 3 Xrotation Yrotation Zrotation
									JOINT mixamorig:RightHandThumb2
									{
										OFFSET -0.102889 -0.059403 0.059403
										CHANNELS 3 Xrotation Yrotation Zrotation
										JOINT mixamorig:RightHandThumb3
										{
											OFFSET -0.097122 -0.056073 0.056073
											CHANNELS 3 Xrotation Yrotation Zrotation
											JOINT mixamorig:RightHandThumb4
											{
												OFFSET -0.076714 -0.044291 0.044291
												CHANNELS 3 Xrotation Yrotation Zrotation
												End Site
												{
													OFFSET -0.072157 -0.042014 0.053259
												}
											}
										}
									}
								}
								JOINT mixamorig:RightHandIndex1
								{
									OFFSET -0.450325 -0.003448 0.076701
									CHANNELS 3 Xrotation Yrotation Zrotation
									JOINT mixamorig:RightHandIndex2
									{
										OFFSET -0.104343 0.000000 -0.000000
										CHANNELS 3 Xrotation Yrotation Zrotation
										JOINT mixamorig:RightHandIndex3
										{
											OFFSET -0.097003 0.000000 -0.000000
											CHANNELS 3 Xrotation Yrotation Zrotation
											JOINT mixamorig:RightHandIndex4
											{
												OFFSET -0.081630 0.000000 -0.000000
												CHANNELS 3 Xrotation Yrotation Zrotation
												End Site
												{
													OFFSET -0.081600 -0.000082 -0.002198
												}
											}
										}
									}
								}
								JOINT mixamorig:RightHandMiddle1
								{
									OFFSET -0.397234 0.000000 -0.000000
									CHANNELS 3 Xrotation Yrotation Zrotation
									JOINT mixamorig:RightHandMiddle2
									{
										OFFSET -0.115313 0.000000 -0.000000
										CHANNELS 3 Xrotation Yrotation Zrotation
										JOINT mixamorig:RightHandMiddle3
										{
											OFFSET -0.121324 0.000000 -0.000000
											CHANNELS 3 Xrotation Yrotation Zrotation
											JOINT mixamorig:RightHandMiddle4
											{
												OFFSET -0.103502 0.000000 0.000000
												CHANNELS 3 Xrotation Yrotation Zrotation
												End Site
												{
													OFFSET -0.103400 -0.000083 -0.004599
												}
											}
										}
									}
								}
								JOINT mixamorig:RightHandRing1
								{
									OFFSET -0.356229 0.006227 -0.097026
									CHANNELS 3 Xrotation Yrotation Zrotation
									JOINT mixamorig:RightHandRing2
									{
										OFFSET -0.116123 0.000000 0.000000
										CHANNELS 3 Xrotation Yrotation Zrotation
										JOINT mixamorig:RightHandRing3
										{
											OFFSET -0.105608 0.000000 0.000000
											CHANNELS 3 Xrotation Yrotation Zrotation
											JOINT mixamorig:RightHandRing4
											{
												OFFSET -0.089388 0.000000 0.000000
												CHANNELS 3 Xrotation Yrotation Zrotation
												End Site
												{
													OFFSET -0.089200 -0.000198 -0.005797
												}
											}
										}
									}
								}
								JOINT mixamorig:RightHandPinky1
								{
									OFFSET -0.319258 -0.005155 -0.189362
									CHANNELS 3 Xrotation Yrotation Zrotation
									JOINT mixamorig:RightHandPinky2
									{
										OFFSET -0.084919 0.000000 0.000000
										CHANNELS 3 Xrotation Yrotation Zrotation
										JOINT mixamorig:RightHandPinky3
										{
											OFFSET -0.068357 0.000000 0.000000
											CHANNELS 3 Xrotation Yrotation Zrotation
											JOINT mixamorig:RightHandPinky4
											{
												OFFSET -0.053427 0.000000 0.000000
												CHANNELS 3 Xrotation Yrotation Zrotation
												End Site
												{
													OFFSET -0.053400 -0.000117 -0.001696
												}
											}
										}
									}
								}
							}
						}
					}
				}
			}
		}
	}
	JOINT mixamorig:LeftUpLeg
	{
		OFFSET 0.302300 -0.158000 -0.006800
		CHANNELS 3 Xrotation Yrotation Zrotation
		JOINT mixamorig:LeftLeg
		{
			OFFSET -0.021195 -1.512800 -0.072827
			CHANNELS 3 Xrotation Yrotation Zrotation
			JOINT mixamorig:LeftFoot
			{
				OFFSET 0.021196 -1.499076 -0.232845
				CHANNELS 3 Xrotation Yrotation Zrotation
				JOINT mixamorig:LeftToeBase
				{
					OFFSET 0.176214 -0.335644 0.384848
					CHANNELS 3 Xrotation Yrotation Zrotation
					JOINT mixamorig:LeftToe_End
					{
						OFFSET 0.078950 -0.008059 0.195507
						CHANNELS 3 Xrotation Yrotation Zrotation
						End Site
						{
							OFFSET 0.078950 -0.008059 0.195507
						}
					}
				}
			}
		}
	}
	JOINT mixamorig:RightUpLeg
	{
		OFFSET -0.302300 -0.158000 -0.006600
		CHANNELS 3 Xrotation Yrotation Zrotation
		JOINT mixamorig:RightLeg
		{
			OFFSET 0.021196 -1.512831 -0.074247
			CHANNELS 3 Xrotation Yrotation Zrotation
			JOINT mixamorig:RightFoot
			{
				OFFSET -0.021196 -1.499093 -0.231430
				CHANNELS 3 Xrotation Yrotation Zrotation
				JOINT mixamorig:RightToeBase
				{
					OFFSET -0.176206 -0.335620 0.376547
					CHANNELS 3 Xrotation Yrotation Zrotation
					JOINT mixamorig:RightToe_End
					{
						OFFSET -0.078935 -0.008056 0.196268
						CHANNELS 3 Xrotation Yrotation Zrotation
						End Site
						{
							OFFSET -0.078935 -0.008056 0.196268
						}
					}
				}
			}
		}
	}
}
MOTION
Frames: 4
Frame Time: 0.033333
-0.052514 3.483716 10.555894 9.188915 -1.349866 2.861061 7.169721 8.599981 -3.409541 -0.291400 1.660922 -0.801951 -0.281352 1.645133 -0.839826 4.808679 0.264104 -0.516103 -10.162075 0.818611 0.140054 -0.000000 -0.000000 0.000000 0.367258 1.003179 -3.992191 57.184881 12.898498 -79.161107 0.000093 -95.792317 0.000049 3.889590 -16.735577 19.204439 1.217847 -3.120730 9.468626 6.742012 17.519920 -7.722786 20.835074 44.001383 -3.251063 0.000002 0.000000 -0.000001 -3.532146 7.489302 -93.268685 5.471215 6.735866 -78.148511 0.261564 1.883352 -15.811654 -0.000001 -0.000004 0.000001 0.427823 6.780131 -89.076226 6.672799 6.878047 -88.260107 0.021926 0.550115 -4.563491 0.000001 0.000001 -0.000003 0.767441 6.728471 -88.543444 6.615423 6.876096 -87.781140 3.544250 6.021365 -60.933204 0.000000 -0.000001 -0.000002 5.026559 6.634631 -71.935190 7.062242 2.792569 -91.513525 0.572483 2.753491 -23.486155 0.000001 -0.000003 0.000001 0.550622 -0.811928 8.658790 17.078968 38.750177 52.999092 0.000006 110.448066 0.000011 -1.277701 11.349896 -6.957946 -9.742882 8.090998 -4.884837 6.067852 -21.608278 3.242003 17.849364 -32.213208 -2.945064 -0.000001 0.000000 -0.000003 -1.451885 -2.764710 56.500390 3.992158 -6.290828 64.767064 3.267676 -5.897408 57.950965 0.000001 0.000002 -0.000001 -1.516678 -2.175704 51.854608 7.063678 -6.947287 90.954351 0.808503 -3.201902 27.440138 0.000001 -0.000002 0.000002 -0.299423 -3.272284 53.384284 4.981151 -6.665312 73.516188 3.993875 -6.122450 64.178035 0.000000 -0.000000 -0.000002 -0.015799 -3.753111 56.842675 5.708866 -6.837389 79.700788 0.259261 -1.884604 15.664139 -0.000001 0.000001 -0.000000 -39.967654 1.477835 -5.443706 27.012939 8.951847 3.394422 -6.034815 3.454553 -12.580550 2.166635 0.000000 0.000005 0.000000 -0.000003 -0.000001 5.817773 -13.111282 -0.822435 27.788748 -8.265213 -5.296102 29.924807 1.234559 5.797276 -0.579250 -0.000018 0.000005 -0.000002 0.000004 -0.000000 
-0.064895 3.458108 10.918493 8.062895 -1.950851 1.998649 6.339164 9.251803 -3.757665 0.703047 1.760390 -0.636572 0.707585 1.755149 -0.647415 4.384545 0.491580 -0.572733 -10.572361 1.563331 1.079391 0.000001 0.000001 -0.000000 0.314546 1.504058 -3.349413 58.866347 15.108590 -78.225603 0.000100 -96.872662 0.000098 8.255394 -10.947271 19.386339 5.620126 1.453843 9.747780 6.079514 17.813080 -7.425695 20.815235 44.007547 -3.227775 -0.000002 -0.000003 -0.000000 -3.136403 7.394894 -92.877834 5.466942 6.734959 -78.111887 0.204098 1.667264 -13.957096 0.000001 0.000001 0.000001 0.955477 6.853142 -89.710833 6.694596 6.878666 -88.442187 0.003714 0.226581 -1.877935 -0.000000 0.000000 -0.000001 1.105360 6.802442 -89.209449 6.643425 6.877118 -88.015081 4.071051 6.283774 -65.845435 0.000001 -0.000003 -0.000001 6.521609 7.036047 -74.627009 7.115181 2.790966 -91.954502 0.561147 2.727257 -23.248996 0.000001 -0.000003 -0.000005 0.558140 -0.895444 8.876210 20.917270 40.523714 47.547037 -0.000001 113.093350 0.000017 -0.596251 10.942197 -7.208191 -9.257108 8.383345 -4.951338 6.546789 -21.406545 3.455546 17.971556 -32.171741 -2.835370 -0.000002 -0.000002 -0.000003 -1.597054 -2.635655 56.235826 3.973498 -6.282064 64.596678 3.181277 -5.842703 57.106068 -0.000001 0.000000 0.000003 -1.553817 -2.139166 51.796880 7.051767 -6.947468 90.855743 0.807185 -3.198412 27.409500 0.000001 -0.000002 -0.000001 -0.263250 -3.297356 53.359507 4.969956 -6.662004 73.419664 3.972703 -6.113544 63.984249 -0.000002 0.000002 0.000002 0.281705 -3.955158 56.931570 5.713022 -6.838140 79.735581 0.254281 -1.866727 15.511857 0.000000 -0.000001 0.000001 -36.494998 2.194992 -4.492704 12.099939 9.131972 3.490835 -5.866096 7.322993 -14.674079 1.779295 0.000004 0.000004 0.000001 -0.000002 0.000001 9.060152 -10.859601 0.818802 32.679962 -10.283064 -7.088904 30.745007 1.881201 8.370486 -0.023606 0.000011 0.000009 0.000000 0.000001 -0.000001 
-0.075604 3.382243 11.286509 6.543901 -3.188265 0.988096 5.724005 9.575253 -3.906516 1.405342 1.787448 -0.474638 1.403703 1.790999 -0.464549 4.266628 0.885513 -0.577268 -10.467454 3.194841 2.125496 0.000000 -0.000001 -0.000000 0.264930 1.986797 -2.866887 58.887842 15.982354 -76.767460 0.000088 -98.090785 0.000068 11.180295 -5.599235 17.809759 8.838926 5.271247 9.809034 5.374191 18.044147 -7.116065 20.809080 44.009456 -3.220553 0.000001 0.000004 -0.000002 -2.720092 7.322983 -92.587551 5.527496 6.747342 -78.627758 0.173682 1.539755 -12.870110 0.000001 -0.000001 -0.000003 1.267876 6.850658 -89.669742 6.685946 6.878426 -88.369889 0.000433 0.077557 -0.642648 0.000000 -0.000001 -0.000002 1.476612 6.823018 -89.376256 6.644205 6.877149 -88.021536 4.312415 6.385897 -68.032632 -0.000001 -0.000001 0.000003 7.153323 7.152853 -76.120259 7.119454 2.790828 -91.989999 0.560261 2.725242 -23.230594 -0.000001 -0.000003 0.000000 0.572097 -0.756794 9.229822 23.555372 41.600203 43.697665 0.000027 113.965914 -0.000003 -1.346301 9.936093 -7.060258 -8.669458 8.871827 -5.049181 7.258761 -21.106652 3.770594 18.085337 -32.132943 -2.733299 0.000001 -0.000005 -0.000003 -1.771321 -2.601990 56.924811 3.956592 -6.274080 64.442295 3.079869 -5.776189 56.104291 0.000002 -0.000002 -0.000002 -1.619873 -2.143553 52.269409 7.043382 -6.947565 90.786553 0.800454 -3.183613 27.275377 -0.000000 0.000001 -0.000001 -0.271085 -3.302767 53.495117 4.954550 -6.657434 73.286775 3.939551 -6.095318 63.664992 -0.000001 0.000000 -0.000000 0.487688 -4.101942 57.111409 5.731069 -6.841376 79.887129 0.249241 -1.848474 15.356499 0.000001 0.000003 0.000001 -41.238790 3.728631 -3.135464 18.841041 8.069910 2.543160 -9.490400 8.777334 -9.620384 -0.791364 0.000002 0.000004 -0.000002 0.000000 0.000002 11.650421 -9.163354 1.896104 39.277501 -10.284324 -8.615654 31.267404 0.658967 9.797441 -1.250218 0.000007 0.000002 -0.000000 -0.000003 0.000001 
-0.078425 3.274176 11.640306 5.038081 -3.760568 0.610762 5.687090 8.313582 -4.719196 1.598179 1.503703 -0.253517 1.588456 1.514732 -0.240843 4.368218 1.404031 -0.317932 -10.527768 5.909800 2.776760 0.000000 -0.000000 -0.000000 0.226435 2.421678 -2.620661 56.649391 16.287629 -75.505658 0.000053 -97.890510 0.000039 12.074513 -5.439651 15.536432 10.031408 6.203644 9.671030 5.123591 18.135009 -7.004356 20.813332 44.008176 -3.225523 0.000000 0.000000 -0.000004 -2.702829 7.258401 -92.218748 5.522595 6.746358 -78.586162 0.175919 1.549544 -12.953281 -0.000000 0.000000 0.000000 1.154745 6.777941 -88.935354 6.666286 6.877848 -88.205807 0.001601 0.148280 -1.228884 -0.000001 -0.000000 -0.000001 1.574608 6.789276 -88.991949 6.629910 6.876634 -87.902199 3.964334 6.235106 -64.866628 0.000000 0.000001 -0.000000 6.671222 7.031549 -76.245012 7.094356 2.791649 -91.781043 0.566554 2.739833 -23.362505 -0.000004 -0.000004 -0.000002 0.598301 -0.359608 9.970397 24.490967 41.955147 41.660650 0.000003 112.301335 0.000010 -3.656723 10.040668 -5.355898 -8.553420 9.105166 -4.970269 7.273922 -21.100278 3.777271 18.126671 -32.118760 -2.696206 0.000004 -0.000005 -0.000001 -1.712421 -2.655714 57.045402 3.953493 -6.272585 64.413752 3.071734 -5.770739 56.023274 0.000000 -0.000002 0.000003 -1.588747 -2.181831 52.384037 7.037832 -6.947662 90.740771 0.803004 -3.188927 27.324037 0.000003 -0.000001 -0.000001 -0.215781 -3.347293 53.534531 4.949645 -6.655956 73.244476 3.938577 -6.097687 63.666358 0.000002 -0.000000 -0.000001 0.475885 -4.092784 57.089385 5.729607 -6.841093 79.874780 0.250095 -1.851661 15.383615 0.000002 -0.000000 -0.000001 -44.833170 4.738236 -3.795373 28.259177 7.830378 1.840478 -7.929939 6.312960 5.270912 -5.540684 0.000004 0.000001 0.000002 -0.000002 -0.000001 11.533204 -8.531296 1.372043 49.036800 -10.275594 -9.311587 33.168167 -2.121142 11.816892 -2.495713 -0.000009 0.000007 -0.000000 0.000001 -0.000001 
